<svg xmlns="http://www.w3.org/2000/svg" viewBox="0 0 2.17 35.28" preserveAspectRatio="none">
        <defs>
            <linearGradient id="gradient" x1="3%" y1="66%" x2="97%" y2="34%">
                <stop offset="5%" stop-color="#fcd34d66"></stop>
                <stop offset="95%" stop-color="#e5c29066"></stop>
            </linearGradient>
        </defs>
        <path d="M1.67 0c-.55 3.07.41 9.27 0 16.14-.4 6.88-.58 13.75.1 19.14h.4V0z" fill="url(#gradient)" />
        <defs>
            <linearGradient id="gradient" x1="3%" y1="66%" x2="97%" y2="34%">
                <stop offset="5%" stop-color="#fcd34d88"></stop>
                <stop offset="95%" stop-color="#e5c29088"></stop>
            </linearGradient>
        </defs>
        <path
            d="M1.16 0c-.8 3.17.4 7.29.56 10.04C1.89 12.8.25 19.3.42 22.71c.16 3.43.84 4.65.86 7.05.03 2.4-.88 5.52-.88 5.52h1.77V0z"
            opacity=".5" fill="url(#gradient)" />
        <defs>
            <linearGradient id="gradient" x1="3%" y1="66%" x2="97%" y2="34%">
                <stop offset="5%" stop-color="#fcd34dff"></stop>
                <stop offset="95%" stop-color="#e5c290ff"></stop>
            </linearGradient>
        </defs>
        <path
            d="M.31 0c.84 2.56.3 7.68.43 11.79.12 4.1.61 6.86.28 9.58-.33 2.73-1.18 5.61-1 8.61.19 3 .82 4.73.84 5.3h1.2V0z"
            opacity=".5" fill="url(#gradient)" />
</svg>